<svg width="24" height="24" viewBox="0 0 24 24" fill="none" xmlns="http://www.w3.org/2000/svg">
<path fill-rule="evenodd" clip-rule="evenodd" d="M22.125 0.75H1.875C1.25 0.75 0.75 1.25 0.75 1.875V22.125C0.75 22.625 1.25 23.25 1.875 23.25H22.125C22.625 23.25 23.25 22.625 23.25 22.125V1.875C23.25 1.25 22.625 0.75 22.125 0.75ZM8.24984 5.74988H5.74984V8.24988H8.24984V5.74988ZM18.2502 5.74988H10.7502V8.24988H18.2502V5.74988ZM18.2502 10.7501H10.7502V13.2501H18.2502V10.7501ZM10.7502 15.75H18.2502V18.25H10.7502V15.75ZM5.74984 10.7501H8.24984V13.2501H5.74984V10.7501ZM8.24984 15.75H5.74984V18.25H8.24984V15.75ZM3.25016 20.7501H20.7502V3.25012H3.25016V20.7501Z" fill="#3A4276"/>
</svg>
