<svg width="30" height="25" viewBox="0 0 30 25" fill="none" xmlns="http://www.w3.org/2000/svg">
<path d="M0 12.1531C0.676076 12.2 0.676076 12.2 0.870081 11.5676C1.85186 8.3123 2.83364 5.06281 3.80366 1.80162C3.87421 1.57913 3.96827 1.52058 4.17404 1.57913C4.20343 1.58498 4.23283 1.60255 4.26222 1.59669C4.89127 1.56156 5.10879 1.907 5.27927 2.47493C6.17875 5.57804 7.13114 8.66945 8.05413 11.7667C8.14231 12.0653 8.25989 12.2234 8.58911 12.1648C8.65966 12.1531 8.74196 12.1766 8.88306 12.1883C8.79487 12.5688 8.74196 12.9318 8.62438 13.2773C7.96594 15.1509 6.07881 16.398 4.16228 16.234C2.03999 16.0525 0.423283 14.5946 0.0646682 12.5513C0.0529103 12.4986 0.0235157 12.4459 0.00587892 12.3932C0 12.3112 0 12.2292 0 12.1531ZM4.4621 3.46442C4.44447 3.46442 4.42095 3.46442 4.40332 3.46442C3.53911 6.3509 2.67491 9.24323 1.80483 12.1473C3.58027 12.1473 5.30867 12.1473 7.06059 12.1473C6.19051 9.23738 5.32631 6.3509 4.4621 3.46442Z" fill="#3A4276"/>
<path d="M13.9858 20.6486C13.9858 20.5081 13.9858 20.4027 13.9858 20.3032C13.9858 15.2504 13.9858 10.1976 13.9917 5.14476C13.9917 4.9574 13.9447 4.82859 13.7801 4.70564C12.8512 4.01476 12.5631 2.79693 13.0687 1.77232C13.5684 0.765272 14.7266 0.244184 15.8083 0.53693C16.9135 0.841386 17.6543 1.86014 17.5602 3.00185C17.5014 3.7103 17.184 4.28994 16.6078 4.71149C16.455 4.82273 16.4021 4.93983 16.4021 5.12134C16.4079 10.1741 16.4079 15.2269 16.4079 20.2797C16.4079 20.3851 16.4079 20.4905 16.4079 20.6486C16.5549 20.6486 16.6784 20.6486 16.8018 20.6486C19.1534 20.6486 21.505 20.6545 23.8565 20.6427C24.2446 20.6427 24.4974 20.795 24.6384 21.1346C25.0088 22.0421 25.0088 22.9554 24.6443 23.8688C24.5032 24.2201 24.2387 24.3782 23.8448 24.3782C18.1128 24.3723 12.3809 24.3723 6.65481 24.3723C6.06692 24.3723 5.85528 24.2377 5.67891 23.6932C5.40848 22.8735 5.41436 22.0421 5.71418 21.2282C5.88467 20.7715 6.09043 20.6486 6.58426 20.6486C8.92408 20.6486 11.2698 20.6486 13.6096 20.6486C13.7213 20.6486 13.833 20.6486 13.9858 20.6486ZM16.4667 2.83206C16.4726 2.14118 15.9024 1.56154 15.2086 1.55569C14.5149 1.54983 13.9329 2.11776 13.9329 2.80864C13.927 3.50538 14.4973 4.07916 15.191 4.07916C15.8906 4.08501 16.4609 3.5288 16.4667 2.83206Z" fill="#3A4276"/>
<path d="M25.0734 5.22086C25.4261 5.27355 25.7495 5.30868 26.0611 5.38479C26.1493 5.40821 26.2374 5.54873 26.2727 5.65412C27.1957 8.69868 28.1128 11.7491 29.0358 14.7937C29.1122 15.0454 29.2063 15.2913 29.2592 15.5489C29.3121 15.7773 29.4062 15.8885 29.6531 15.8475C29.7648 15.83 29.8824 15.8417 29.9999 15.8417C29.9647 17.5572 28.4538 19.8289 25.6848 19.9109C23.3803 19.9811 21.2697 18.0783 21.2051 15.8651C21.2404 15.8593 21.2756 15.8417 21.3109 15.8417C21.8694 15.8241 21.8635 15.8241 22.034 15.2738C23.0158 12.0126 23.9976 8.74552 24.9793 5.48433C25.0146 5.41407 25.0381 5.3321 25.0734 5.22086ZM22.9805 15.83C24.7501 15.83 26.4785 15.83 28.2421 15.83C27.3721 12.9201 26.5079 10.0277 25.6378 7.14127C25.6201 7.14127 25.5966 7.14127 25.579 7.14127C24.7148 10.0336 23.8506 12.9142 22.9805 15.83Z" fill="#3A4276"/>
<path d="M12.4745 1.40932C12.3746 1.69622 12.2923 1.94212 12.1982 2.22316C11.6456 2.13533 11.0871 2.04751 10.5286 1.95969C8.32401 1.59083 6.11353 1.22197 3.90305 0.853107C3.52092 0.788703 3.35044 0.536941 3.49153 0.244195C3.59147 0.0275624 3.77372 -0.0251319 4.003 0.00999766C6.00771 0.343728 8.0183 0.671604 10.023 1.00533C10.8343 1.14 11.6456 1.27466 12.4745 1.40932Z" fill="#3A4276"/>
<path d="M18.1895 3.42928C18.213 3.14239 18.2306 2.89648 18.2541 2.59788C18.5892 2.65057 18.9184 2.69156 19.2535 2.75011C21.564 3.13068 23.8803 3.5171 26.1907 3.89767C26.3083 3.91524 26.42 3.9328 26.5375 3.95622C26.8256 4.00891 26.9549 4.17871 26.9138 4.44218C26.8726 4.71151 26.6786 4.84031 26.3788 4.79348C24.9914 4.57099 23.6039 4.34265 22.2165 4.1143C20.9467 3.90353 19.6709 3.69275 18.4011 3.48197C18.3305 3.47026 18.2659 3.44684 18.1895 3.42928Z" fill="#3A4276"/>
</svg>
