<svg width="28" height="28" viewBox="0 0 28 28" fill="none" xmlns="http://www.w3.org/2000/svg">
<path d="M14.8514 0.000488281L14.8477 4.73998L18.2969 6.14556L22.6872 3.19375L14.8514 0.000488281Z" fill="#41D5E2"/>
<path d="M4.39453 4.55957V23.4406L8.78496 20.4818V7.51833L4.39453 4.55957Z" fill="#41D5E2"/>
<path d="M14.0221 6.18164L10.4336 7.63491V20.3648L14.0221 21.8181L17.568 20.373V7.6267L14.0221 6.18164Z" fill="#41D5E2"/>
<path d="M19.2148 7.51182V20.4881L23.6053 23.4399V4.56006L19.2148 7.51182Z" fill="#41D5E2"/>
<path d="M18.2969 21.8545L14.8477 23.2601L14.8515 27.9996L22.6873 24.8063L18.2969 21.8545Z" fill="#41D5E2"/>
<path d="M5.31641 3.19413L9.70683 6.15289L13.1999 4.73823L13.2035 0L5.31641 3.19413Z" fill="#41D5E2"/>
<path d="M13.1999 23.2616L9.70683 21.8469L5.31641 24.8057L13.2036 27.9999L13.1999 23.2616Z" fill="#41D5E2"/>
</svg>
