<svg width="60" height="60" viewBox="0 0 60 60" fill="none" xmlns="http://www.w3.org/2000/svg">
<circle cx="30" cy="30" r="30" fill="#BE71D5" fill-opacity="0.08"/>
<path d="M35.832 26.5C37.2472 26.4986 38.644 26.821 39.9154 27.4427V17.1667C39.9154 16.8572 39.7924 16.5605 39.5737 16.3417C39.3549 16.1229 39.0581 16 38.7487 16H32.332V21.8333C32.332 22.1428 32.2091 22.4395 31.9903 22.6583C31.7715 22.8771 31.4748 23 31.1654 23H28.832C28.5226 23 28.2259 22.8771 28.0071 22.6583C27.7883 22.4395 27.6654 22.1428 27.6654 21.8333V16H21.2487C20.9393 16 20.6425 16.1229 20.4237 16.3417C20.2049 16.5605 20.082 16.8572 20.082 17.1667V33.5C20.082 33.8094 20.2049 34.1062 20.4237 34.325C20.6425 34.5438 20.9393 34.6667 21.2487 34.6667H26.5742C26.8607 32.4126 27.9587 30.3401 29.6626 28.837C31.3666 27.3339 33.5598 26.5031 35.832 26.5Z" fill="#BE71D5"/>
<path d="M35.8307 27.6665C34.2155 27.6665 32.6366 28.1455 31.2936 29.0428C29.9506 29.9402 28.9038 31.2157 28.2857 32.7079C27.6676 34.2002 27.5059 35.8422 27.821 37.4264C28.1361 39.0106 28.9139 40.4657 30.056 41.6079C31.1982 42.75 32.6533 43.5278 34.2375 43.8429C35.8217 44.158 37.4637 43.9963 38.956 43.3782C40.4482 42.7601 41.7237 41.7133 42.6211 40.3703C43.5184 39.0273 43.9974 37.4484 43.9974 35.8332C43.9949 33.668 43.1337 31.5922 41.6027 30.0612C40.0717 28.5302 37.9959 27.669 35.8307 27.6665ZM40.4974 35.8332C40.4967 36.4518 40.2506 37.0449 39.8132 37.4823C39.3758 37.9198 38.7827 38.1658 38.1641 38.1665H34.6641V39.9165C34.6641 40.0389 34.6255 40.1583 34.554 40.2576C34.4824 40.3569 34.3813 40.4312 34.2652 40.4699C34.149 40.5086 34.0237 40.5098 33.9068 40.4733C33.7899 40.4368 33.6875 40.3644 33.6141 40.2665L31.1641 36.9998L33.6141 33.7332C33.6875 33.6352 33.7899 33.5629 33.9068 33.5264C34.0237 33.4899 34.149 33.4911 34.2652 33.5298C34.3813 33.5685 34.4824 33.6428 34.554 33.7421C34.6255 33.8414 34.6641 33.9607 34.6641 34.0832V35.8332H38.1641V34.6665H35.8307V32.3332H38.1641C38.7827 32.3339 39.3758 32.5799 39.8132 33.0174C40.2506 33.4548 40.4967 34.0479 40.4974 34.6665V35.8332Z" fill="#BE71D5"/>
</svg>
