<svg width="60" height="60" viewBox="0 0 60 60" fill="none" xmlns="http://www.w3.org/2000/svg">
<circle cx="30" cy="30" r="30" fill="#62CA76" fill-opacity="0.1"/>
<g clip-path="url(#clip0)">
<path d="M42.9537 34.9222C42.4195 34.882 41.3107 35.5024 41.0119 35.6633C39.9319 36.2263 38.4324 37.111 37.45 37.8177C37.3811 37.8636 37.2891 37.9268 37.2202 37.9728C36.7778 38.2715 36.3067 38.4669 35.7897 38.5818C32.9287 39.2137 28.752 39.2827 28.752 39.2827L28.5107 39.2942C28.3269 39.3056 28.166 39.1735 28.1373 38.9897C28.1086 38.7886 28.2522 38.599 28.459 38.5818L34.6637 37.9671C35.3473 37.8924 35.8931 37.2259 35.8184 36.4791C35.7437 35.7322 35.0831 35.1865 34.3994 35.2669L28.8784 35.1979C28.505 35.1922 27.9018 35.0945 27.5398 34.9854C23.9837 33.9053 21.9786 34.9164 20.9101 35.3875C20.6745 34.9796 20.2207 34.7154 19.7151 34.7498L17.3367 34.9164C16.5439 34.9739 15.9464 35.6576 16.0038 36.4504L16.383 41.9311C16.4404 42.7239 17.1241 43.3214 17.9169 43.264L20.2954 43.0974C20.7952 43.0629 21.2088 42.7412 21.3869 42.3045L31.8371 42.7699C33.0034 42.8963 34.0949 42.7527 35.1175 42.1954L35.4163 42.0345L43.3214 37.2374C43.7121 37.0019 43.9879 36.594 43.9993 36.1401C44.0166 35.5886 43.7063 34.9796 42.9537 34.9222ZM18.7844 41.9656C18.3363 41.9656 17.9744 41.6037 17.9744 41.1555C17.9744 40.7074 18.3363 40.3455 18.7844 40.3455C19.2325 40.3455 19.5945 40.7074 19.5945 41.1555C19.5945 41.5979 19.2325 41.9656 18.7844 41.9656Z" fill="#62CA76"/>
<path d="M36.957 35.7954C37.0145 35.9735 37.0604 36.1573 37.0777 36.3527C37.0949 36.5078 37.0949 36.6629 37.0834 36.8123C37.1639 36.7548 37.25 36.6916 37.3305 36.6342C38.1348 36.0482 39.7893 35.1175 40.72 34.6292C41.0015 34.4798 41.3003 34.3362 41.6162 34.2155C41.2084 33.934 40.7717 33.9225 40.3236 34.1006C39.4331 34.4625 37.8016 35.2841 36.9685 35.7552C36.9685 35.7724 36.9628 35.7839 36.957 35.7954Z" fill="#62CA76"/>
<path d="M38.1921 33.4573C37.6463 33.6814 36.4169 34.095 35.8711 34.3938C36.1066 34.5432 36.3135 34.727 36.4916 34.9453C36.526 34.9223 36.5605 34.8936 36.6007 34.8706L36.9971 34.6408C37.5831 34.3076 38.824 33.8537 39.4675 33.555C39.0596 33.285 38.6287 33.2735 38.1921 33.4573Z" fill="#62CA76"/>
<path d="M24.4786 24.7477C24.559 24.8626 24.5533 24.943 24.4786 25.0579C24.1281 25.5865 23.7834 26.115 23.4502 26.6493C23.1285 27.1663 23.3296 27.7638 23.8983 27.9821C24.4901 28.2119 25.0761 28.436 25.6678 28.6543C25.7942 28.7003 25.8344 28.7635 25.8402 28.8898C25.8689 29.4873 25.9321 30.0848 25.9263 30.6823C25.9206 31.2913 26.4549 31.8256 27.1787 31.5958C27.7532 31.4119 28.345 31.2798 28.9252 31.1132C29.0401 31.0787 29.1091 31.1017 29.1895 31.1993C29.5744 31.6819 29.9651 32.1645 30.3615 32.6414C30.7924 33.1641 31.4128 33.1641 31.838 32.6414C32.2286 32.1588 32.6135 31.6819 32.9985 31.1936C33.0731 31.1017 33.1363 31.0672 33.257 31.1017C33.8602 31.2683 34.4634 31.4292 35.0724 31.59C35.6929 31.7566 36.2157 31.3774 36.2501 30.7397C36.2846 30.1135 36.3191 29.4931 36.3421 28.8669C36.3478 28.7232 36.411 28.6658 36.5317 28.6198C37.1062 28.4073 37.6749 28.1832 38.2437 27.9592C38.8584 27.7179 39.0537 27.1204 38.6975 26.5689C38.3586 26.0518 38.0254 25.529 37.6807 25.0177C37.6002 24.9028 37.606 24.8224 37.6807 24.7075C38.0139 24.2019 38.3413 23.6963 38.6688 23.185C39.0537 22.5876 38.8526 21.9901 38.1862 21.7488C37.6175 21.542 37.0545 21.3179 36.4914 21.1111C36.3708 21.0651 36.3248 21.0019 36.3191 20.8698C36.2904 20.2493 36.2559 19.6346 36.2214 19.0199C36.187 18.365 35.6699 17.9915 35.0379 18.1581C34.4405 18.319 33.843 18.4741 33.2512 18.6465C33.1134 18.6867 33.0444 18.6522 32.9582 18.5488C32.5791 18.072 32.1884 17.5951 31.8035 17.124C31.3841 16.6012 30.7522 16.6012 30.327 17.124C29.9479 17.5951 29.5629 18.0605 29.1953 18.5431C29.0918 18.6752 28.9999 18.6982 28.8506 18.6522C28.2703 18.4856 27.6843 18.3362 27.2649 18.2213C26.4491 18.026 25.9723 18.3592 25.9263 19.0256C25.8804 19.6518 25.8574 20.2723 25.8344 20.8985C25.8287 21.0307 25.7827 21.0881 25.6678 21.1341C25.0818 21.3524 24.4958 21.5764 23.9156 21.8062C23.3123 22.0475 23.1228 22.6393 23.4789 23.185C23.7949 23.7136 24.1339 24.2306 24.4786 24.7477ZM28.8735 27.3847C28.931 27.1778 28.9884 26.971 29.0516 26.7642C29.1263 26.5229 29.1895 26.4942 29.4078 26.6091C29.7812 26.8044 30.1834 26.9136 30.597 26.9653C30.8671 26.9997 31.1313 26.971 31.3784 26.8619C31.8437 26.6608 31.9184 26.1207 31.522 25.799C31.3899 25.6899 31.2347 25.6094 31.0796 25.5405C30.6717 25.3624 30.2466 25.2245 29.8617 24.9947C29.2355 24.6213 28.8391 24.11 28.8908 23.3459C28.9425 22.4841 29.4308 21.9499 30.2179 21.6626C30.5453 21.542 30.5453 21.5477 30.5453 21.2087C30.5453 21.0938 30.5453 20.9789 30.5453 20.864C30.5511 20.6055 30.597 20.5653 30.8498 20.5596C30.9303 20.5596 31.0049 20.5596 31.0854 20.5596C31.6254 20.5596 31.6254 20.5596 31.6311 21.0996C31.6311 21.4845 31.6311 21.4845 32.0161 21.5477C32.3091 21.5937 32.5906 21.6798 32.8606 21.8005C33.01 21.8637 33.0674 21.9728 33.0214 22.128C32.9525 22.3635 32.8893 22.599 32.8146 22.8288C32.7457 23.0472 32.671 23.0816 32.4642 22.9782C32.039 22.7714 31.5967 22.6852 31.1256 22.7139C31.0049 22.7197 30.8843 22.7369 30.7694 22.7886C30.3672 22.9667 30.2983 23.4091 30.643 23.6849C30.8154 23.8227 31.0164 23.9261 31.2232 24.0123C31.5794 24.1617 31.9414 24.3053 32.2803 24.4892C33.3661 25.0866 33.6534 26.4482 32.8951 27.3789C32.6193 27.7121 32.2631 27.9419 31.8437 28.0568C31.6599 28.1085 31.5794 28.2004 31.5852 28.39C31.5909 28.5739 31.5852 28.7635 31.5852 28.9473C31.5852 29.1139 31.499 29.2058 31.3381 29.2058C31.1371 29.2116 30.936 29.2116 30.7349 29.2058C30.5568 29.2001 30.4764 29.1024 30.4764 28.9301C30.4764 28.7922 30.4764 28.66 30.4706 28.5222C30.4649 28.2234 30.4592 28.2062 30.1662 28.166C29.7985 28.1085 29.4308 28.0223 29.0918 27.8615C28.8218 27.7294 28.7988 27.6604 28.8735 27.3847Z" fill="#62CA76"/>
</g>
<defs>
<clipPath id="clip0">
<rect width="28" height="28" fill="white" transform="translate(16 16)"/>
</clipPath>
</defs>
</svg>
