<svg width="60" height="60" viewBox="0 0 60 60" fill="none" xmlns="http://www.w3.org/2000/svg">
<circle cx="30" cy="30" r="30" fill="#FF5668" fill-opacity="0.06"/>
<g clip-path="url(#clip0)">
<path d="M18.2891 22.2829L22.4559 24.6886L29.1713 20.8115V16L18.2891 22.2829Z" fill="#FF5668"/>
<path d="M17.4609 23.7173V36.2831L21.6277 33.8773V26.123L17.4609 23.7173Z" fill="#FF5668"/>
<path d="M30.8281 16V20.8115L37.5436 24.6886L41.7104 22.2829L30.8281 16Z" fill="#FF5668"/>
<path d="M30.0006 22.2456L23.2852 26.1227V33.8771L30.0006 37.7542L36.716 33.8771V26.1227L30.0006 22.2456Z" fill="#FF5668"/>
<path d="M38.3711 26.123V33.8773L42.5379 36.2831V23.7173L38.3711 26.123Z" fill="#FF5668"/>
<path d="M22.4559 35.3115L18.2891 37.7172L29.1713 44.0002V39.1887L22.4559 35.3115Z" fill="#FF5668"/>
<path d="M37.5436 35.3115L30.8281 39.1887V44.0002L41.7104 37.7172L37.5436 35.3115Z" fill="#FF5668"/>
</g>
<defs>
<clipPath id="clip0">
<rect width="28" height="28" fill="white" transform="translate(16 16)"/>
</clipPath>
</defs>
</svg>
