<svg width="60" height="60" viewBox="0 0 60 60" fill="none" xmlns="http://www.w3.org/2000/svg">
<circle cx="30" cy="30" r="30" fill="#41D5E2" fill-opacity="0.1"/>
<path d="M30.8514 16.0005L30.8477 20.74L34.2969 22.1456L38.6872 19.1937L30.8514 16.0005Z" fill="#41D5E2"/>
<path d="M20.3945 20.5596V39.4406L24.785 36.4818V23.5183L20.3945 20.5596Z" fill="#41D5E2"/>
<path d="M30.0221 22.1816L26.4336 23.6349V36.3648L30.0221 37.8181L33.568 36.373V23.6267L30.0221 22.1816Z" fill="#41D5E2"/>
<path d="M35.2148 23.5118V36.4881L39.6053 39.4399V20.5601L35.2148 23.5118Z" fill="#41D5E2"/>
<path d="M34.2969 37.8545L30.8477 39.2601L30.8515 43.9996L38.6873 40.8063L34.2969 37.8545Z" fill="#41D5E2"/>
<path d="M21.3164 19.1941L25.7068 22.1529L29.1999 20.7382L29.2035 16L21.3164 19.1941Z" fill="#41D5E2"/>
<path d="M29.1999 39.2616L25.7068 37.8469L21.3164 40.8057L29.2036 43.9999L29.1999 39.2616Z" fill="#41D5E2"/>
</svg>
