<svg width="28" height="28" viewBox="0 0 28 28" fill="none" xmlns="http://www.w3.org/2000/svg">
<g clip-path="url(#clip0)">
<path d="M26.9537 18.9222C26.4195 18.882 25.3107 19.5024 25.0119 19.6633C23.9319 20.2263 22.4324 21.111 21.45 21.8177C21.3811 21.8636 21.2891 21.9268 21.2202 21.9728C20.7778 22.2715 20.3067 22.4669 19.7897 22.5818C16.9287 23.2137 12.752 23.2827 12.752 23.2827L12.5107 23.2942C12.3269 23.3056 12.166 23.1735 12.1373 22.9897C12.1086 22.7886 12.2522 22.599 12.459 22.5818L18.6637 21.9671C19.3473 21.8924 19.8931 21.2259 19.8184 20.4791C19.7437 19.7322 19.0831 19.1865 18.3994 19.2669L12.8784 19.1979C12.505 19.1922 11.9018 19.0945 11.5398 18.9854C7.98366 17.9053 5.97865 18.9164 4.91007 19.3875C4.67453 18.9796 4.22067 18.7154 3.71511 18.7498L1.33667 18.9164C0.543852 18.9739 -0.053631 19.6576 0.00381932 20.4504L0.382991 25.9311C0.440441 26.7239 1.1241 27.3214 1.91691 27.264L4.29536 27.0974C4.79517 27.0629 5.20881 26.7412 5.38691 26.3045L15.8371 26.7699C17.0034 26.8963 18.0949 26.7527 19.1175 26.1954L19.4163 26.0345L27.3214 21.2374C27.7121 21.0019 27.9879 20.594 27.9993 20.1401C28.0166 19.5886 27.7063 18.9796 26.9537 18.9222ZM2.78441 25.9656C2.3363 25.9656 1.97436 25.6037 1.97436 25.1555C1.97436 24.7074 2.3363 24.3455 2.78441 24.3455C3.23253 24.3455 3.59446 24.7074 3.59446 25.1555C3.59446 25.5979 3.23253 25.9656 2.78441 25.9656Z" fill="#62CA76"/>
<path d="M20.957 19.7954C21.0145 19.9735 21.0604 20.1573 21.0777 20.3527C21.0949 20.5078 21.0949 20.6629 21.0834 20.8123C21.1639 20.7548 21.25 20.6916 21.3305 20.6342C22.1348 20.0482 23.7893 19.1175 24.72 18.6292C25.0015 18.4798 25.3003 18.3362 25.6162 18.2155C25.2084 17.934 24.7717 17.9225 24.3236 18.1006C23.4331 18.4625 21.8016 19.2841 20.9685 19.7552C20.9685 19.7724 20.9628 19.7839 20.957 19.7954Z" fill="#62CA76"/>
<path d="M22.1921 17.4573C21.6463 17.6814 20.4169 18.095 19.8711 18.3938C20.1066 18.5432 20.3135 18.727 20.4916 18.9453C20.526 18.9223 20.5605 18.8936 20.6007 18.8706L20.9971 18.6408C21.5831 18.3076 22.824 17.8537 23.4675 17.555C23.0596 17.285 22.6287 17.2735 22.1921 17.4573Z" fill="#62CA76"/>
<path d="M8.47858 8.74768C8.55901 8.86258 8.55327 8.94301 8.47858 9.05791C8.12813 9.58646 7.78343 10.115 7.45022 10.6493C7.1285 11.1663 7.32958 11.7638 7.89833 11.9821C8.49007 12.2119 9.07607 12.436 9.6678 12.6543C9.79419 12.7003 9.83441 12.7635 9.84015 12.8898C9.86888 13.4873 9.93208 14.0848 9.92633 14.6823C9.92058 15.2913 10.4549 15.8256 11.1787 15.5958C11.7532 15.4119 12.345 15.2798 12.9252 15.1132C13.0401 15.0787 13.1091 15.1017 13.1895 15.1993C13.5744 15.6819 13.9651 16.1645 14.3615 16.6414C14.7924 17.1641 15.4128 17.1641 15.838 16.6414C16.2286 16.1588 16.6135 15.6819 16.9985 15.1936C17.0731 15.1017 17.1363 15.0672 17.257 15.1017C17.8602 15.2683 18.4634 15.4292 19.0724 15.59C19.6929 15.7566 20.2157 15.3774 20.2501 14.7397C20.2846 14.1135 20.3191 13.4931 20.3421 12.8669C20.3478 12.7232 20.411 12.6658 20.5317 12.6198C21.1062 12.4073 21.6749 12.1832 22.2437 11.9592C22.8584 11.7179 23.0537 11.1204 22.6975 10.5689C22.3586 10.0518 22.0254 9.52901 21.6807 9.0177C21.6002 8.9028 21.606 8.82237 21.6807 8.70747C22.0139 8.20191 22.3413 7.69634 22.6688 7.18504C23.0537 6.58755 22.8526 5.99007 22.1862 5.74878C21.6175 5.54196 21.0545 5.3179 20.4914 5.11108C20.3708 5.06512 20.3248 5.00192 20.3191 4.86979C20.2904 4.24933 20.2559 3.63461 20.2214 3.01989C20.187 2.36496 19.6699 1.99153 19.0379 2.15814C18.4405 2.319 17.843 2.47411 17.2512 2.64646C17.1134 2.68668 17.0444 2.65221 16.9582 2.5488C16.5791 2.07196 16.1884 1.59512 15.8035 1.12403C15.3841 0.601234 14.7522 0.601234 14.327 1.12403C13.9479 1.59512 13.5629 2.06047 13.1953 2.54305C13.0918 2.67519 12.9999 2.69817 12.8506 2.65221C12.2703 2.4856 11.6843 2.33623 11.2649 2.22133C10.4491 2.026 9.97229 2.35921 9.92633 3.02564C9.88037 3.65184 9.85739 4.27231 9.83441 4.89851C9.82866 5.03065 9.7827 5.0881 9.6678 5.13406C9.08181 5.35237 8.49582 5.57643 7.91557 5.80623C7.31234 6.04752 7.12275 6.63926 7.47895 7.18504C7.79492 7.71358 8.13388 8.23063 8.47858 8.74768ZM12.8735 11.3847C12.931 11.1778 12.9884 10.971 13.0516 10.7642C13.1263 10.5229 13.1895 10.4942 13.4078 10.6091C13.7812 10.8044 14.1834 10.9136 14.597 10.9653C14.8671 10.9997 15.1313 10.971 15.3784 10.8619C15.8437 10.6608 15.9184 10.1207 15.522 9.79902C15.3899 9.68987 15.2347 9.60944 15.0796 9.5405C14.6717 9.3624 14.2466 9.22452 13.8617 8.99472C13.2355 8.62129 12.8391 8.10998 12.8908 7.3459C12.9425 6.48414 13.4308 5.94985 14.2179 5.6626C14.5453 5.54196 14.5453 5.5477 14.5453 5.20875C14.5453 5.09385 14.5453 4.97894 14.5453 4.86404C14.5511 4.60552 14.597 4.5653 14.8498 4.55956C14.9303 4.55956 15.0049 4.55956 15.0854 4.55956C15.6254 4.55956 15.6254 4.55956 15.6311 5.09959C15.6311 5.48451 15.6311 5.48451 16.0161 5.5477C16.3091 5.59366 16.5906 5.67984 16.8606 5.80048C17.01 5.86368 17.0674 5.97283 17.0214 6.12795C16.9525 6.3635 16.8893 6.59904 16.8146 6.82884C16.7457 7.04715 16.671 7.08163 16.4642 6.97821C16.039 6.77139 15.5967 6.68522 15.1256 6.71394C15.0049 6.71969 14.8843 6.73692 14.7694 6.78863C14.3672 6.96672 14.2983 7.40909 14.643 7.68485C14.8154 7.82273 15.0164 7.92614 15.2232 8.01232C15.5794 8.16169 15.9414 8.30532 16.2803 8.48916C17.3661 9.08664 17.6534 10.4482 16.8951 11.3789C16.6193 11.7121 16.2631 11.9419 15.8437 12.0568C15.6599 12.1085 15.5794 12.2004 15.5852 12.39C15.5909 12.5739 15.5852 12.7635 15.5852 12.9473C15.5852 13.1139 15.499 13.2058 15.3381 13.2058C15.1371 13.2116 14.936 13.2116 14.7349 13.2058C14.5568 13.2001 14.4764 13.1024 14.4764 12.9301C14.4764 12.7922 14.4764 12.66 14.4706 12.5222C14.4649 12.2234 14.4592 12.2062 14.1662 12.166C13.7985 12.1085 13.4308 12.0223 13.0918 11.8615C12.8218 11.7294 12.7988 11.6604 12.8735 11.3847Z" fill="#62CA76"/>
</g>
<defs>
<clipPath id="clip0">
<rect width="28" height="28" fill="white"/>
</clipPath>
</defs>
</svg>
