<svg width="28" height="28" viewBox="0 0 28 28" fill="none" xmlns="http://www.w3.org/2000/svg">
<g clip-path="url(#clip0)">
<path d="M2.28906 6.28294L6.45592 8.68859L13.1713 4.81146V0L2.28906 6.28294Z" fill="#FF5668"/>
<path d="M1.46094 7.71729V20.2831L5.62774 17.8773V10.123L1.46094 7.71729Z" fill="#FF5668"/>
<path d="M14.8281 0V4.81146L21.5436 8.68859L25.7104 6.28294L14.8281 0Z" fill="#FF5668"/>
<path d="M14.0006 6.24561L7.28516 10.1227V17.8771L14.0006 21.7542L20.716 17.8771V10.1227L14.0006 6.24561Z" fill="#FF5668"/>
<path d="M22.3711 10.123V17.8773L26.5379 20.2831V7.71729L22.3711 10.123Z" fill="#FF5668"/>
<path d="M6.45592 19.3115L2.28906 21.7172L13.1713 28.0002V23.1887L6.45592 19.3115Z" fill="#FF5668"/>
<path d="M21.5436 19.3115L14.8281 23.1887V28.0002L25.7104 21.7172L21.5436 19.3115Z" fill="#FF5668"/>
</g>
<defs>
<clipPath id="clip0">
<rect width="28" height="28" fill="white"/>
</clipPath>
</defs>
</svg>
