<svg width="28" height="28" viewBox="0 0 28 28" fill="none" xmlns="http://www.w3.org/2000/svg">
<path d="M19.832 10.5C21.2472 10.4986 22.644 10.821 23.9154 11.4427V1.16667C23.9154 0.857247 23.7924 0.560501 23.5737 0.341709C23.3549 0.122916 23.0581 0 22.7487 0L16.332 0V5.83333C16.332 6.14275 16.2091 6.4395 15.9903 6.65829C15.7715 6.87708 15.4748 7 15.1654 7H12.832C12.5226 7 12.2259 6.87708 12.0071 6.65829C11.7883 6.4395 11.6654 6.14275 11.6654 5.83333V0H5.2487C4.93928 0 4.64253 0.122916 4.42374 0.341709C4.20495 0.560501 4.08203 0.857247 4.08203 1.16667V17.5C4.08203 17.8094 4.20495 18.1062 4.42374 18.325C4.64253 18.5438 4.93928 18.6667 5.2487 18.6667H10.5742C10.8607 16.4126 11.9587 14.3401 13.6626 12.837C15.3666 11.3339 17.5598 10.5031 19.832 10.5Z" fill="#BE71D5"/>
<path d="M19.8307 11.6665C18.2155 11.6665 16.6366 12.1455 15.2936 13.0428C13.9506 13.9402 12.9038 15.2157 12.2857 16.7079C11.6676 18.2002 11.5059 19.8422 11.821 21.4264C12.1361 23.0106 12.9139 24.4657 14.056 25.6079C15.1982 26.75 16.6533 27.5278 18.2375 27.8429C19.8217 28.158 21.4637 27.9963 22.956 27.3782C24.4482 26.7601 25.7237 25.7133 26.6211 24.3703C27.5184 23.0273 27.9974 21.4484 27.9974 19.8332C27.9949 17.668 27.1337 15.5922 25.6027 14.0612C24.0717 12.5302 21.9959 11.669 19.8307 11.6665ZM24.4974 19.8332C24.4967 20.4518 24.2506 21.0449 23.8132 21.4823C23.3758 21.9198 22.7827 22.1658 22.1641 22.1665H18.6641V23.9165C18.6641 24.0389 18.6255 24.1583 18.554 24.2576C18.4824 24.3569 18.3813 24.4312 18.2652 24.4699C18.149 24.5086 18.0237 24.5098 17.9068 24.4733C17.7899 24.4368 17.6875 24.3644 17.6141 24.2665L15.1641 20.9998L17.6141 17.7332C17.6875 17.6352 17.7899 17.5629 17.9068 17.5264C18.0237 17.4899 18.149 17.4911 18.2652 17.5298C18.3813 17.5685 18.4824 17.6428 18.554 17.7421C18.6255 17.8414 18.6641 17.9607 18.6641 18.0832V19.8332H22.1641V18.6665H19.8307V16.3332H22.1641C22.7827 16.3339 23.3758 16.5799 23.8132 17.0174C24.2506 17.4548 24.4967 18.0479 24.4974 18.6665V19.8332Z" fill="#BE71D5"/>
</svg>
