<svg width="60" height="60" viewBox="0 0 60 60" fill="none" xmlns="http://www.w3.org/2000/svg">
<circle cx="30" cy="30" r="30" fill="#FF8E36" fill-opacity="0.08"/>
<g clip-path="url(#clip0)">
<path d="M42.4089 27.9292C41.9779 27.6115 41.4398 27.2146 41.3692 26.9516C41.2925 26.6631 41.5664 26.0313 41.788 25.5236C42.1678 24.6519 42.5598 23.7487 42.124 22.9975C41.6845 22.2367 40.6972 22.1246 39.744 22.0175C39.1998 21.9566 38.5229 21.8812 38.3208 21.6779C38.1175 21.4745 38.0421 20.7977 37.9812 20.2547C37.8741 19.3015 37.7632 18.3154 37.0012 17.8747C36.3389 17.49 35.3577 17.826 34.4751 18.2107C33.9881 18.4225 33.4792 18.6246 33.0459 18.6295C32.7829 18.5589 32.3873 18.0208 32.0683 17.5898C31.5205 16.8448 30.8984 16 30 16C29.1027 16 28.4795 16.8448 27.9304 17.5899C27.6115 18.022 27.2158 18.5602 26.8432 18.6417C26.5145 18.6417 26.0105 18.4226 25.5236 18.2108C24.6386 17.8261 23.6561 17.4937 22.9988 17.8748C22.2355 18.3155 22.1247 19.3016 22.0175 20.256C21.9566 20.8002 21.8812 21.4758 21.6791 21.6791C21.4757 21.8812 20.7989 21.9579 20.2559 22.0176C19.3015 22.1247 18.3142 22.2367 17.8747 22.9976C17.4401 23.7487 17.8321 24.6508 18.2107 25.5237C18.4323 26.0313 18.7074 26.6643 18.6295 26.9529C18.5589 27.2158 18.022 27.6127 17.5898 27.9304C16.8448 28.4783 16 29.1015 16 30C16 30.8984 16.8448 31.5217 17.5911 32.0708C18.0221 32.3885 18.5602 32.7854 18.6308 33.0483C18.7075 33.3369 18.4336 33.9687 18.212 34.4763C17.8322 35.348 17.4402 36.2513 17.876 37.0024C18.3155 37.7633 19.3028 37.8753 20.256 37.9824C20.8002 38.0433 21.4771 38.1187 21.6792 38.3221C21.8825 38.5254 21.9579 39.2022 22.0188 39.7452C22.1259 40.6984 22.2368 41.6845 22.9988 42.1252C23.6574 42.5087 24.6386 42.1739 25.5237 41.7892C26.0106 41.5774 26.5109 41.3619 26.9529 41.3704C27.2158 41.441 27.6115 41.9792 27.9304 42.4101C28.4795 43.1551 29.1016 44 30 44C30.8973 44 31.5205 43.1551 32.0696 42.4101C32.3885 41.978 32.7842 41.4398 33.1568 41.3571C33.4855 41.3571 33.9895 41.5762 34.4764 41.788C35.3639 42.1727 36.3439 42.5063 37.0012 42.1252C37.7645 41.6845 37.8753 40.6984 37.9825 39.744C38.0434 39.1998 38.1188 38.5242 38.3209 38.3209C38.5243 38.1175 39.2011 38.0421 39.7441 37.9812C40.6985 37.8741 41.6858 37.7633 42.1253 37.0012C42.5599 36.2501 42.1679 35.348 41.7893 34.4751C41.5677 33.9675 41.2938 33.3345 41.3705 33.0471C41.4411 32.7842 41.978 32.3873 42.4102 32.0696C43.1552 31.5217 44.0001 30.8984 44.0001 30C44.0001 29.1015 43.1551 28.4783 42.4089 27.9292ZM26.9565 32.4348C26.9565 32.6965 26.7885 32.929 26.5402 33.0118C26.4769 33.0337 26.4123 33.0435 26.3478 33.0435C26.1603 33.0435 25.9777 32.9558 25.8609 32.8L23.3043 29.3913V32.4348C23.3043 32.7708 23.0316 33.0435 22.6956 33.0435C22.3596 33.0435 22.0869 32.7708 22.0869 32.4348V27.5652C22.0869 27.3035 22.2549 27.071 22.5033 26.9882C22.7504 26.9042 23.0255 26.9906 23.1826 27.2L25.7391 30.6087V27.5652C25.7391 27.2292 26.0118 26.9565 26.3478 26.9565C26.6838 26.9565 26.9565 27.2292 26.9565 27.5652V32.4348ZM31.2174 29.3913C31.5534 29.3913 31.8261 29.664 31.8261 30C31.8261 30.336 31.5534 30.6087 31.2174 30.6087H29.3913V31.8261H31.2174C31.5534 31.8261 31.8261 32.0988 31.8261 32.4348C31.8261 32.7708 31.5534 33.0435 31.2174 33.0435H28.7826C28.4466 33.0435 28.1739 32.7708 28.1739 32.4348V27.5652C28.1739 27.2292 28.4466 26.9565 28.7826 26.9565H31.2174C31.5534 26.9565 31.8261 27.2292 31.8261 27.5652C31.8261 27.9012 31.5534 28.1739 31.2174 28.1739H29.3913V29.3913H31.2174ZM39.1121 27.7125L37.8948 32.5821C37.829 32.845 37.5977 33.0325 37.3275 33.0422C37.319 33.0422 37.3104 33.0422 37.3031 33.0422C37.0414 33.0422 36.8089 32.8754 36.7249 32.6259L36.0869 30.7073L35.4478 32.6271C35.3626 32.8828 35.152 33.0544 34.8464 33.0423C34.5761 33.0325 34.3449 32.8439 34.2791 32.5821L33.0617 27.7126C32.9814 27.3863 33.1786 27.0564 33.5049 26.9748C33.8251 26.892 34.161 27.0905 34.2426 27.4179L34.9523 30.2593L35.5086 28.5903C35.6754 28.0936 36.4984 28.0936 36.6639 28.5903L37.2203 30.2593L37.93 27.4179C38.0103 27.0904 38.339 26.8932 38.6677 26.9748C38.9965 27.0563 39.1937 27.3875 39.1121 27.7125Z" fill="#FF8E36"/>
</g>
<defs>
<clipPath id="clip0">
<rect width="28" height="28" fill="white" transform="translate(16 16)"/>
</clipPath>
</defs>
</svg>
