<svg width="28" height="28" viewBox="0 0 28 28" fill="none" xmlns="http://www.w3.org/2000/svg">
<g clip-path="url(#clip0)">
<path d="M26.4089 11.9292C25.9779 11.6115 25.4398 11.2146 25.3692 10.9516C25.2925 10.6631 25.5664 10.0313 25.788 9.52361C26.1678 8.65194 26.5598 7.74865 26.124 6.9975C25.6845 6.23665 24.6972 6.12463 23.744 6.01752C23.1998 5.95663 22.5229 5.88119 22.3208 5.67787C22.1175 5.47455 22.0421 4.7977 21.9812 4.25472C21.8741 3.30151 21.7632 2.31542 21.0012 1.87471C20.3389 1.49003 19.3577 1.82603 18.4751 2.21071C17.9881 2.42253 17.4792 2.6246 17.0459 2.62951C16.7829 2.55892 16.3873 2.02079 16.0683 1.58984C15.5205 0.84485 14.8984 0 14 0C13.1027 0 12.4795 0.84485 11.9304 1.58989C11.6115 2.02205 11.2158 2.56017 10.8432 2.64172C10.5145 2.64172 10.0105 2.42259 9.52361 2.21076C8.63858 1.82609 7.65615 1.49374 6.99876 1.87476C6.23545 2.31548 6.12469 3.30156 6.01752 4.25598C5.95663 4.80015 5.88119 5.4758 5.67907 5.67913C5.47575 5.88119 4.7989 5.95789 4.25592 6.01758C3.30151 6.12469 2.31416 6.23671 1.87471 6.99756C1.4401 7.74871 1.83208 8.6508 2.21071 9.52366C2.43229 10.0313 2.7074 10.6643 2.62951 10.9529C2.55892 11.2158 2.02205 11.6127 1.58984 11.9304C0.84485 12.4783 0 13.1015 0 14C0 14.8984 0.84485 15.5217 1.59115 16.0708C2.0221 16.3885 2.56017 16.7854 2.63082 17.0483C2.70751 17.3369 2.4336 17.9687 2.21202 18.4763C1.83219 19.348 1.44021 20.2513 1.87602 21.0024C2.31548 21.7633 3.30282 21.8753 4.25604 21.9824C4.80021 22.0433 5.47706 22.1187 5.67918 22.3221C5.88251 22.5254 5.95795 23.2022 6.01884 23.7452C6.12595 24.6984 6.23677 25.6845 6.99882 26.1252C7.65741 26.5087 8.63864 26.1739 9.52366 25.7892C10.0106 25.5774 10.5109 25.3619 10.9529 25.3704C11.2158 25.441 11.6115 25.9792 11.9304 26.4101C12.4795 27.1551 13.1016 28 14 28C14.8973 28 15.5205 27.1551 16.0696 26.4101C16.3885 25.978 16.7842 25.4398 17.1568 25.3571C17.4855 25.3571 17.9895 25.5762 18.4764 25.788C19.3639 26.1727 20.3439 26.5063 21.0012 26.1252C21.7645 25.6845 21.8753 24.6984 21.9825 23.744C22.0434 23.1998 22.1188 22.5242 22.3209 22.3209C22.5243 22.1175 23.2011 22.0421 23.7441 21.9812C24.6985 21.8741 25.6858 21.7633 26.1253 21.0012C26.5599 20.2501 26.1679 19.348 25.7893 18.4751C25.5677 17.9675 25.2938 17.3345 25.3705 17.0471C25.4411 16.7842 25.978 16.3873 26.4102 16.0696C27.1552 15.5217 28.0001 14.8984 28.0001 14C28.0001 13.1015 27.1551 12.4783 26.4089 11.9292ZM10.9565 16.4348C10.9565 16.6965 10.7885 16.929 10.5402 17.0118C10.4769 17.0337 10.4123 17.0435 10.3478 17.0435C10.1603 17.0435 9.97773 16.9558 9.86086 16.8L7.30434 13.3913V16.4348C7.30434 16.7708 7.03163 17.0435 6.69563 17.0435C6.35963 17.0435 6.08691 16.7708 6.08691 16.4348V11.5652C6.08691 11.3035 6.25491 11.071 6.50326 10.9882C6.75041 10.9042 7.02552 10.9906 7.18257 11.2L9.73909 14.6087V11.5652C9.73909 11.2292 10.0118 10.9565 10.3478 10.9565C10.6838 10.9565 10.9565 11.2292 10.9565 11.5652V16.4348ZM15.2174 13.3913C15.5534 13.3913 15.8261 13.664 15.8261 14C15.8261 14.336 15.5534 14.6087 15.2174 14.6087H13.3913V15.8261H15.2174C15.5534 15.8261 15.8261 16.0988 15.8261 16.4348C15.8261 16.7708 15.5534 17.0435 15.2174 17.0435H12.7826C12.4466 17.0435 12.1739 16.7708 12.1739 16.4348V11.5652C12.1739 11.2292 12.4466 10.9565 12.7826 10.9565H15.2174C15.5534 10.9565 15.8261 11.2292 15.8261 11.5652C15.8261 11.9012 15.5534 12.1739 15.2174 12.1739H13.3913V13.3913H15.2174ZM23.1121 11.7125L21.8948 16.5821C21.829 16.845 21.5977 17.0325 21.3275 17.0422C21.319 17.0422 21.3104 17.0422 21.3031 17.0422C21.0414 17.0422 20.8089 16.8754 20.7249 16.6259L20.0869 14.7073L19.4478 16.6271C19.3626 16.8828 19.152 17.0544 18.8464 17.0423C18.5761 17.0325 18.3449 16.8439 18.2791 16.5821L17.0617 11.7126C16.9814 11.3863 17.1786 11.0564 17.5049 10.9748C17.8251 10.892 18.161 11.0905 18.2426 11.4179L18.9523 14.2593L19.5086 12.5903C19.6754 12.0936 20.4984 12.0936 20.6639 12.5903L21.2203 14.2593L21.93 11.4179C22.0103 11.0904 22.339 10.8932 22.6677 10.9748C22.9965 11.0563 23.1937 11.3875 23.1121 11.7125Z" fill="#FF8E36"/>
</g>
<defs>
<clipPath id="clip0">
<rect width="28" height="28" fill="white"/>
</clipPath>
</defs>
</svg>
