<svg width="28" height="28" viewBox="0 0 28 28" fill="none" xmlns="http://www.w3.org/2000/svg">
<g clip-path="url(#clip0)">
<path d="M13.9997 23.0092L17.7963 11.1978H10.2031L13.9997 23.0092Z" fill="#8489FE"/>
<path d="M19.5202 11.1978L14.7305 26.0991L27.8392 11.1978H19.5202Z" fill="#4D53E0"/>
<path d="M8.47916 11.1978H0.160156L13.2689 26.0991L8.47916 11.1978Z" fill="#4D53E0"/>
<path d="M28.0014 9.55711L24.7724 2.79565L20.4258 9.55711H28.0014Z" fill="#8489FE"/>
<path d="M4.60547 1.90088L9.07951 8.86047L13.5535 1.90088H4.60547Z" fill="#4D53E0"/>
<path d="M14.4492 1.90088L18.9233 8.86047L23.3973 1.90088H14.4492Z" fill="#4D53E0"/>
<path d="M10.582 9.557H17.4207L14.0014 4.23804L10.582 9.557Z" fill="#B5B8FF"/>
<path d="M3.22897 2.79565L0 9.55711H7.57559L3.22897 2.79565Z" fill="#8489FE"/>
</g>
<defs>
<clipPath id="clip0">
<rect width="28" height="28" fill="white"/>
</clipPath>
</defs>
</svg>
