<svg width="152" height="143" viewBox="0 0 152 143" fill="none" xmlns="http://www.w3.org/2000/svg">
<g clip-path="url(#clip0)">
<path d="M91.999 8.02302L12.8086 24.814L36.2852 132.939L115.476 116.148L91.999 8.02302Z" fill="#E0E0E0"/>
<g opacity="0.5">
<path opacity="0.5" d="M91.0609 10.1351L14.5469 26.3585L37.23 130.828L113.744 114.605L91.0609 10.1351Z" fill="url(#paint0_linear)"/>
</g>
<path d="M90.2535 11.1103L15.6875 26.9208L37.8694 129.082L112.435 113.272L90.2535 11.1103Z" fill="#FAFAFA"/>
<path d="M70.6007 10.6443L33.6094 18.4877L35.532 27.3426L72.5233 19.4992L70.6007 10.6443Z" fill="url(#paint1_linear)"/>
<path d="M50.2297 5.91737C47.3737 6.52357 45.5668 9.35679 46.195 12.245C46.8233 15.1331 49.6459 16.9865 52.4962 16.3803C55.3466 15.7741 57.1591 12.9409 56.5309 10.0527C55.9026 7.16457 53.0856 5.31116 50.2297 5.91737ZM52.0218 14.1771C51.4182 14.3194 50.7854 14.2808 50.2041 14.0663C49.6228 13.8519 49.1192 13.4712 48.7576 12.9729C48.396 12.4746 48.1928 11.8811 48.1737 11.2682C48.1547 10.6553 48.3208 10.0507 48.6508 9.5314C48.9808 9.01211 49.4598 8.60168 50.0267 8.35241C50.5937 8.10314 51.2229 8.02632 51.8342 8.13175C52.4454 8.23718 53.0111 8.52007 53.4591 8.94438C53.9071 9.36869 54.217 9.9152 54.3495 10.5143C54.4411 10.9059 54.4534 11.3115 54.3859 11.7078C54.3183 12.1041 54.1722 12.4833 53.9559 12.8237C53.7396 13.1641 53.4574 13.4588 53.1255 13.6911C52.7936 13.9234 52.4185 14.0885 52.0218 14.1771Z" fill="url(#paint2_linear)"/>
<path d="M70.1262 10.3471L33.9141 18.0253L35.7519 26.4898L71.964 18.8117L70.1262 10.3471Z" fill="#3A4276"/>
<path d="M50.2267 5.91725C49.2258 6.12955 48.311 6.63039 47.5981 7.35644C46.8852 8.08248 46.4062 9.00113 46.2216 9.99621C46.037 10.9913 46.1551 12.0181 46.5611 12.9468C46.967 13.8756 47.6425 14.6645 48.5022 15.2139C49.3618 15.7632 50.367 16.0483 51.3906 16.0331C52.4143 16.018 53.4103 15.7032 54.2529 15.1286C55.0955 14.554 55.7468 13.7454 56.1243 12.805C56.5019 11.8647 56.5888 10.8348 56.3741 9.84567C56.2315 9.18882 55.9594 8.56617 55.5733 8.01325C55.1872 7.46034 54.6946 6.988 54.1238 6.62321C53.5529 6.25841 52.915 6.00831 52.2463 5.88718C51.5776 5.76605 50.8914 5.77627 50.2267 5.91725ZM51.9392 13.8107C51.3614 13.9332 50.7599 13.8837 50.2106 13.6683C49.6614 13.453 49.1891 13.0815 48.8535 12.6009C48.5179 12.1203 48.334 11.5521 48.3252 10.9683C48.3164 10.3844 48.483 9.81106 48.8039 9.32076C49.1248 8.83045 49.5856 8.44521 50.1281 8.21374C50.6706 7.98227 51.2704 7.91498 51.8516 8.02037C52.4328 8.12576 52.9693 8.3991 53.3933 8.80583C53.8173 9.21256 54.1097 9.7344 54.2335 10.3054C54.3996 11.0709 54.2511 11.8702 53.8209 12.5275C53.3906 13.1849 52.7138 13.6465 51.9392 13.8107Z" fill="#3A4276"/>
<path d="M128.786 21.4113H47.793V131.997H128.786V21.4113Z" fill="#E0E0E0"/>
<g opacity="0.5">
<path opacity="0.5" d="M127.419 23.2811H49.1641V130.129H127.419V23.2811Z" fill="url(#paint3_linear)"/>
</g>
<path d="M126.423 24.0686H50.1602V128.555H126.423V24.0686Z" fill="white"/>
<path d="M107.306 19.5377H69.4727V28.5941H107.306V19.5377Z" fill="url(#paint4_linear)"/>
<path d="M88.3909 10.6974C85.4701 10.6974 83.1016 13.0929 83.1016 16.0488C83.1016 19.0048 85.4701 21.4003 88.3909 21.4003C91.3117 21.4003 93.6802 19.0048 93.6802 16.0488C93.6802 13.0929 91.3117 10.6974 88.3909 10.6974ZM88.3909 19.1366C87.7699 19.1512 87.1587 18.9825 86.6352 18.6522C86.1117 18.3219 85.6997 17.8449 85.4518 17.2821C85.2038 16.7193 85.1313 16.0963 85.2434 15.4926C85.3554 14.8889 85.647 14.3319 86.0809 13.8927C86.5148 13.4535 87.0713 13.152 87.6794 13.0268C88.2874 12.9016 88.9194 12.9583 89.4947 13.1897C90.07 13.4211 90.5625 13.8167 90.9092 14.326C91.2559 14.8352 91.4412 15.435 91.4414 16.0488C91.4473 16.8555 91.1297 17.6317 90.5581 18.2077C89.9864 18.7836 89.2072 19.1123 88.3909 19.122V19.1366Z" fill="url(#paint5_linear)"/>
<path d="M106.911 19.1494H69.875V27.8066H106.911V19.1494Z" fill="#3A4276"/>
<path d="M88.3911 10.6974C87.3674 10.6974 86.3666 10.9974 85.5153 11.5595C84.6641 12.1215 84.0006 12.9204 83.6089 13.8551C83.2171 14.7898 83.1146 15.8182 83.3143 16.8105C83.514 17.8027 84.007 18.7142 84.7309 19.4296C85.4549 20.1449 86.3772 20.6321 87.3813 20.8295C88.3854 21.0268 89.4262 20.9255 90.372 20.5384C91.3178 20.1512 92.1263 19.4956 92.695 18.6544C93.2638 17.8132 93.5674 16.8243 93.5674 15.8126C93.5674 14.4559 93.0221 13.1549 92.0513 12.1956C91.0806 11.2363 89.764 10.6974 88.3911 10.6974ZM88.3911 18.7648C87.8007 18.7641 87.2238 18.5905 86.7331 18.266C86.2425 17.9415 85.8601 17.4806 85.6344 16.9415C85.4086 16.4024 85.3495 15.8093 85.4646 15.2371C85.5797 14.6648 85.8638 14.1391 86.281 13.7263C86.6983 13.3135 87.2299 13.0321 87.8088 12.9177C88.3878 12.8032 88.988 12.8609 89.5338 13.0833C90.0797 13.3057 90.5465 13.683 90.8755 14.1674C91.2045 14.6519 91.3809 15.2218 91.3824 15.8052C91.3821 16.1931 91.3045 16.5771 91.1541 16.9353C91.0036 17.2935 90.7832 17.6189 90.5054 17.8929C90.2276 18.1669 89.8979 18.3841 89.5351 18.5322C89.1723 18.6802 88.7836 18.7562 88.3911 18.7557V18.7648Z" fill="#3A4276"/>
<g opacity="0.5">
<path opacity="0.5" d="M3.52887 134.986H2.83203V138.892H3.52887V134.986Z" fill="#47E6B1"/>
<path opacity="0.5" d="M5.16016 137.285V136.595H1.20708V137.285H5.16016Z" fill="#47E6B1"/>
</g>
<g opacity="0.5">
<path opacity="0.5" d="M84.3726 0H83.6758V3.90644H84.3726V0Z" fill="#47E6B1"/>
<path opacity="0.5" d="M86.0039 2.29775V1.60803L82.0508 1.60803V2.29775H86.0039Z" fill="#47E6B1"/>
</g>
<path opacity="0.5" d="M142.903 141.489C142.71 141.406 142.556 141.257 142.468 141.069C142.38 140.881 142.365 140.667 142.426 140.469C142.436 140.439 142.442 140.407 142.445 140.376C142.45 140.285 142.426 140.195 142.376 140.119C142.326 140.043 142.252 139.985 142.166 139.953C142.079 139.922 141.985 139.919 141.897 139.944C141.809 139.97 141.731 140.023 141.676 140.095C141.656 140.121 141.64 140.149 141.628 140.178C141.544 140.368 141.392 140.521 141.202 140.607C141.012 140.694 140.796 140.709 140.595 140.649C140.565 140.639 140.533 140.633 140.501 140.63C140.409 140.625 140.318 140.649 140.241 140.698C140.164 140.748 140.105 140.821 140.073 140.906C140.041 140.991 140.038 141.085 140.064 141.172C140.09 141.259 140.144 141.336 140.217 141.39C140.243 141.409 140.271 141.425 140.301 141.438C140.493 141.521 140.648 141.67 140.735 141.858C140.823 142.046 140.838 142.26 140.777 142.458C140.767 142.488 140.761 142.52 140.758 142.551C140.753 142.642 140.777 142.732 140.827 142.808C140.878 142.884 140.951 142.942 141.038 142.974C141.124 143.005 141.218 143.008 141.306 142.983C141.395 142.957 141.472 142.904 141.527 142.832C141.547 142.806 141.563 142.778 141.576 142.749C141.659 142.559 141.811 142.406 142.001 142.32C142.191 142.233 142.407 142.218 142.608 142.278C142.639 142.288 142.67 142.294 142.702 142.297C142.794 142.302 142.885 142.278 142.962 142.229C143.039 142.179 143.098 142.106 143.13 142.021C143.162 141.936 143.165 141.842 143.139 141.755C143.113 141.668 143.059 141.591 142.986 141.537C142.96 141.518 142.932 141.502 142.903 141.489Z" fill="#4D8AF0"/>
<path opacity="0.5" d="M25.3284 103.934C25.1362 103.851 24.9814 103.702 24.8936 103.513C24.8058 103.325 24.791 103.112 24.8521 102.914C24.8619 102.883 24.8682 102.852 24.8706 102.82C24.8762 102.73 24.852 102.64 24.8017 102.564C24.7514 102.487 24.6777 102.429 24.5914 102.398C24.5051 102.367 24.4109 102.363 24.3226 102.389C24.2344 102.415 24.1569 102.468 24.1015 102.54C24.0822 102.566 24.0661 102.593 24.0533 102.623C23.9696 102.812 23.8182 102.965 23.6279 103.052C23.4376 103.139 23.2216 103.154 23.021 103.093C22.9904 103.083 22.9586 103.077 22.9265 103.075C22.8347 103.069 22.7436 103.093 22.6666 103.143C22.5896 103.193 22.5309 103.266 22.4991 103.351C22.4673 103.436 22.4641 103.529 22.49 103.616C22.5159 103.704 22.5696 103.78 22.643 103.835C22.6688 103.854 22.6968 103.87 22.7264 103.883C22.9186 103.965 23.0733 104.115 23.1611 104.303C23.2489 104.491 23.2637 104.704 23.2027 104.903C23.1928 104.933 23.1866 104.964 23.1841 104.996C23.1786 105.087 23.2028 105.177 23.2531 105.253C23.3033 105.329 23.3771 105.387 23.4634 105.418C23.5496 105.45 23.6439 105.453 23.7321 105.427C23.8203 105.402 23.8979 105.349 23.9532 105.276C23.9725 105.251 23.9887 105.223 24.0014 105.194C24.0851 105.004 24.2365 104.851 24.4268 104.764C24.6172 104.677 24.8332 104.663 25.0337 104.723C25.0644 104.733 25.0961 104.739 25.1282 104.741C25.22 104.747 25.3111 104.723 25.3881 104.673C25.4651 104.624 25.5239 104.551 25.5557 104.466C25.5875 104.38 25.5906 104.287 25.5647 104.2C25.5388 104.113 25.4852 104.036 25.4118 103.981C25.386 103.962 25.358 103.946 25.3284 103.934Z" fill="#FDD835"/>
<path opacity="0.5" d="M123.258 12.4867C123.066 12.404 122.911 12.2544 122.823 12.0663C122.735 11.8782 122.721 11.6648 122.782 11.4666C122.792 11.4363 122.798 11.4049 122.8 11.3732C122.806 11.2825 122.782 11.1924 122.731 11.1164C122.681 11.0403 122.607 10.9822 122.521 10.9508C122.435 10.9194 122.341 10.9162 122.252 10.9418C122.164 10.9674 122.087 11.0204 122.031 11.093C122.012 11.1185 121.996 11.1462 121.983 11.1754C121.899 11.3653 121.748 11.5182 121.558 11.605C121.367 11.6918 121.151 11.7064 120.951 11.6461C120.92 11.6363 120.888 11.6302 120.856 11.6278C120.764 11.6223 120.673 11.6462 120.596 11.6959C120.519 11.7456 120.461 11.8184 120.429 11.9037C120.397 11.989 120.394 12.0821 120.42 12.1693C120.446 12.2565 120.499 12.3331 120.573 12.3878C120.598 12.4068 120.626 12.4228 120.656 12.4354C120.848 12.5181 121.003 12.6677 121.091 12.8558C121.179 13.0439 121.193 13.2574 121.132 13.4555C121.122 13.4858 121.116 13.5172 121.114 13.5489C121.108 13.6396 121.132 13.7297 121.183 13.8058C121.233 13.8818 121.307 13.9399 121.393 13.9713C121.479 14.0027 121.574 14.0059 121.662 13.9803C121.75 13.9547 121.828 13.9017 121.883 13.8291C121.902 13.8036 121.918 13.776 121.931 13.7467C122.015 13.5568 122.166 13.4039 122.357 13.3171C122.547 13.2303 122.763 13.2157 122.963 13.276C122.994 13.2858 123.026 13.2919 123.058 13.2944C123.15 13.2998 123.241 13.2759 123.318 13.2262C123.395 13.1765 123.454 13.1037 123.485 13.0184C123.517 12.9331 123.52 12.84 123.494 12.7528C123.468 12.6657 123.415 12.589 123.341 12.5343C123.316 12.5153 123.288 12.4993 123.258 12.4867Z" fill="#FDD835"/>
<path opacity="0.5" d="M150.606 58.9721C151.377 58.9721 152.002 58.3547 152.002 57.593C152.002 56.8314 151.377 56.214 150.606 56.214C149.836 56.214 149.211 56.8314 149.211 57.593C149.211 58.3547 149.836 58.9721 150.606 58.9721Z" fill="#F55F44"/>
<path opacity="0.5" d="M42.7627 138.123C43.5335 138.123 44.1583 137.505 44.1583 136.744C44.1583 135.982 43.5335 135.365 42.7627 135.365C41.992 135.365 41.3672 135.982 41.3672 136.744C41.3672 137.505 41.992 138.123 42.7627 138.123Z" fill="#F55F44"/>
<path opacity="0.5" d="M136.274 88.7806C137.045 88.7806 137.67 88.1632 137.67 87.4015C137.67 86.6399 137.045 86.0225 136.274 86.0225C135.504 86.0225 134.879 86.6399 134.879 87.4015C134.879 88.1632 135.504 88.7806 136.274 88.7806Z" fill="#F55F44"/>
<path opacity="0.5" d="M16.1494 19.025C16.9202 19.025 17.545 18.4075 17.545 17.6459C17.545 16.8843 16.9202 16.2668 16.1494 16.2668C15.3787 16.2668 14.7539 16.8843 14.7539 17.6459C14.7539 18.4075 15.3787 19.025 16.1494 19.025Z" fill="#4D8AF0"/>
<path opacity="0.5" d="M1.39553 56.6444C2.16626 56.6444 2.79106 56.0269 2.79106 55.2653C2.79106 54.5037 2.16626 53.8862 1.39553 53.8862C0.624801 53.8862 0 54.5037 0 55.2653C0 56.0269 0.624801 56.6444 1.39553 56.6444Z" fill="#47E6B1"/>
</g>
<defs>
<linearGradient id="paint0_linear" x1="75.4861" y1="122.717" x2="53.3122" y2="18.139" gradientUnits="userSpaceOnUse">
<stop stop-color="#808080" stop-opacity="0.25"/>
<stop offset="0.54" stop-color="#808080" stop-opacity="0.12"/>
<stop offset="1" stop-color="#808080" stop-opacity="0.1"/>
</linearGradient>
<linearGradient id="paint1_linear" x1="20350.4" y1="-2618.75" x2="20257.4" y2="-3057.07" gradientUnits="userSpaceOnUse">
<stop stop-color="#808080" stop-opacity="0.25"/>
<stop offset="0.54" stop-color="#808080" stop-opacity="0.12"/>
<stop offset="1" stop-color="#808080" stop-opacity="0.1"/>
</linearGradient>
<linearGradient id="paint2_linear" x1="5942.36" y1="298.701" x2="5812.7" y2="-312.803" gradientUnits="userSpaceOnUse">
<stop stop-color="#808080" stop-opacity="0.25"/>
<stop offset="0.54" stop-color="#808080" stop-opacity="0.12"/>
<stop offset="1" stop-color="#808080" stop-opacity="0.1"/>
</linearGradient>
<linearGradient id="paint3_linear" x1="37330" y1="75941.7" x2="37330" y2="13605.7" gradientUnits="userSpaceOnUse">
<stop stop-color="#808080" stop-opacity="0.25"/>
<stop offset="0.54" stop-color="#808080" stop-opacity="0.12"/>
<stop offset="1" stop-color="#808080" stop-opacity="0.1"/>
</linearGradient>
<linearGradient id="paint4_linear" x1="18113.6" y1="1433.52" x2="18113.6" y2="985.677" gradientUnits="userSpaceOnUse">
<stop stop-color="#808080" stop-opacity="0.25"/>
<stop offset="0.54" stop-color="#808080" stop-opacity="0.12"/>
<stop offset="1" stop-color="#808080" stop-opacity="0.1"/>
</linearGradient>
<linearGradient id="paint5_linear" x1="7137.55" y1="1898.58" x2="7137.55" y2="1273.1" gradientUnits="userSpaceOnUse">
<stop stop-color="#808080" stop-opacity="0.25"/>
<stop offset="0.54" stop-color="#808080" stop-opacity="0.12"/>
<stop offset="1" stop-color="#808080" stop-opacity="0.1"/>
</linearGradient>
<clipPath id="clip0">
<rect width="152" height="143" fill="white"/>
</clipPath>
</defs>
</svg>
