<svg width="26" height="26" viewBox="0 0 26 26" fill="none" xmlns="http://www.w3.org/2000/svg">
<path fill-rule="evenodd" clip-rule="evenodd" d="M20.8711 12.9625C20.4461 13.7375 19.6211 14.25 18.6836 14.25H9.37109L7.99609 16.75H22.9961V19.25H7.99609C6.09609 19.25 4.89609 17.2125 5.80859 15.5375L7.49609 12.4875L2.99609 3.00003H0.496094V0.500031H4.58359L5.75859 3.00003H24.2586C25.2086 3.00003 25.8086 4.02503 25.3461 4.85003L20.8711 12.9625ZM22.134 5.49999H6.94646L9.90896 11.75H18.684L22.134 5.49999ZM7.9949 20.5C6.6199 20.5 5.5074 21.625 5.5074 23C5.5074 24.375 6.6199 25.5 7.9949 25.5C9.3699 25.5 10.4949 24.375 10.4949 23C10.4949 21.625 9.3699 20.5 7.9949 20.5ZM18.0087 23C18.0087 21.625 19.1212 20.5 20.4962 20.5C21.8712 20.5 22.9962 21.625 22.9962 23C22.9962 24.375 21.8712 25.5 20.4962 25.5C19.1212 25.5 18.0087 24.375 18.0087 23Z" fill="#3A4276"/>
</svg>
