<svg width="18" height="18" viewBox="0 0 18 18" fill="none" xmlns="http://www.w3.org/2000/svg">
<path fill-rule="evenodd" clip-rule="evenodd" d="M11.9629 11.255H12.7529L17.7429 16.255L16.2529 17.745L11.2529 12.755V11.965L10.9829 11.685C9.84293 12.665 8.36293 13.255 6.75293 13.255C3.16293 13.255 0.25293 10.345 0.25293 6.75497C0.25293 3.16497 3.16293 0.254974 6.75293 0.254974C10.3429 0.254974 13.2529 3.16497 13.2529 6.75497C13.2529 8.36497 12.6629 9.84497 11.6829 10.985L11.9629 11.255ZM2.25319 6.755C2.25319 9.245 4.26319 11.255 6.75319 11.255C9.24319 11.255 11.2532 9.245 11.2532 6.755C11.2532 4.265 9.24319 2.255 6.75319 2.255C4.26319 2.255 2.25319 4.265 2.25319 6.755Z" fill="#BDBDBD"/>
</svg>
